<svg width="42" height="41" viewBox="0 0 42 41" fill="none" xmlns="http://www.w3.org/2000/svg">
<path d="M0.646452 35.9989C0.45119 36.1941 0.45119 36.5107 0.646452 36.706L3.82844 39.888C4.0237 40.0832 4.34028 40.0832 4.53554 39.888C4.7308 39.6927 4.7308 39.3761 4.53554 39.1809L1.70711 36.3524L4.53554 33.524C4.7308 33.3287 4.7308 33.0122 4.53554 32.8169C4.34027 32.6216 4.02369 32.6216 3.82843 32.8169L0.646452 35.9989ZM40.8964 0.815736C40.1149 13.6545 35.5642 22.3856 28.5469 27.9187C21.5149 33.4635 11.9358 35.8524 1 35.8524L1.00001 36.8524C12.0641 36.8524 21.8945 34.4376 29.1661 28.704C36.4524 22.9587 41.0995 13.9367 41.8946 0.876497L40.8964 0.815736Z" fill="#6F6F6F"/>
</svg>
