<svg width="26" height="16" viewBox="0 0 26 16" fill="none" xmlns="http://www.w3.org/2000/svg">
<path fill-rule="evenodd" clip-rule="evenodd" d="M0 1C0 0.447715 0.447715 0 1 0H25C25.5523 0 26 0.447715 26 1C26 1.55228 25.5523 2 25 2H1C0.447716 2 0 1.55228 0 1ZM0 8C0 7.44772 0.447715 7 1 7H25C25.5523 7 26 7.44772 26 8C26 8.55228 25.5523 9 25 9H1C0.447716 9 0 8.55228 0 8ZM1 14C0.447715 14 0 14.4477 0 15C0 15.5523 0.447716 16 1 16H25C25.5523 16 26 15.5523 26 15C26 14.4477 25.5523 14 25 14H1Z" fill="#6F6F6F"/>
</svg>
